<svg version="1.1" xmlns="http://www.w3.org/2000/svg" width="86" height="32" viewBox="0 0 86 32">
  <title>logo_ezlo</title>
  <path d="M85.344 15.149l-9.049-3.087-0.175-0.087v-10.323h-12.379v5.878l-0.119 0.085c-0.119 0.085-0.119 0.085-1.149-0.267l-19.779-6.747-42.509 14.548-0.184-0.539 42.693-14.612 0.092 0.032 20.391 6.955v-5.904h13.511v10.513l8.84 3.016z"></path>
  <path d="M23.738 25.834c-1.473 2.674-4.274 4.456-7.49 4.456-4.707 0-8.524-3.816-8.524-8.524s3.816-8.524 8.524-8.524c4.406 0 8.031 3.343 8.477 7.631l0.003 0.037h-15.392v1.708h17.14v-0.854c-0.002-5.645-4.578-10.22-10.223-10.22-5.646 0-10.223 4.577-10.223 10.223s4.577 10.223 10.223 10.223c4.176 0 7.767-2.504 9.354-6.092l0.026-0.065z"></path>
  <path d="M43.902 31.344h-19.875l17.389-17.388h-15.435v-1.708h19.556l-17.389 17.389h15.754v1.706z"></path>
  <path d="M62.18 31.344h-16.145v-18.954h1.708v17.247h14.437v1.706z"></path>
  <path d="M70.066 32c-5.65 0-10.231-4.581-10.231-10.231s4.581-10.231 10.231-10.231c5.65 0 10.231 4.581 10.231 10.231v0c-0.007 5.648-4.583 10.225-10.23 10.231h-0.001zM70.066 13.24c-4.708 0-8.525 3.817-8.525 8.525s3.817 8.525 8.525 8.525c4.708 0 8.525-3.817 8.525-8.525v0c-0.008-4.704-3.821-8.515-8.524-8.52h-0.001z"></path>
</svg>
